<?xml version="1.0" encoding="utf-8"?>
<svg version="1.1" xmlns:xlink="http://www.w3.org/1999/xlink" width="23px" height="40px" xmlns="http://www.w3.org/2000/svg">
  <g transform="matrix(1 0 0 1 -1422 -315 )">
    <path d="M 0.395189003436427 37.5951903807615  C 0.131729667812139 37.3279893119573  0 37.0207080828323  0 36.6733466933868  C 0 36.3259853039412  0.131729667812139 36.0187040748163  0.395189003436427 35.751503006012  L 15.926116838488 20  L 0.395189003436427 4.24849699398798  C 0.131729667812139 3.9812959251837  0 3.67401469605879  0 3.32665330661323  C 0 2.97929191716767  0.131729667812139 2.67201068804276  0.395189003436427 2.40480961923847  L 2.37113402061856 0.400801603206413  C 2.63459335624284 0.133600534402136  2.93757159221076 0  3.28006872852234 0  C 3.6225658648339 0  3.92554410080183 0.133600534402136  4.18900343642612 0.400801603206413  L 22.6048109965636 19.0781563126253  C 22.8682703321879 19.3453573814295  23 19.6526386105544  23 20  C 23 20.3473613894456  22.8682703321879 20.6546426185705  22.6048109965636 20.9218436873747  L 4.18900343642612 39.5991983967936  C 3.92554410080183 39.8663994655979  3.6225658648339 40  3.28006872852234 40  C 2.93757159221076 40  2.63459335624284 39.8663994655979  2.37113402061856 39.5991983967936  L 0.395189003436427 37.5951903807615  Z " fill-rule="nonzero" fill="#d7d7d7" stroke="none" transform="matrix(1 0 0 1 1422 315 )" />
  </g>
</svg>