<?xml version="1.0" encoding="utf-8"?>
<svg version="1.1" xmlns:xlink="http://www.w3.org/1999/xlink" width="23px" height="40px" xmlns="http://www.w3.org/2000/svg">
  <defs>
    <linearGradient gradientUnits="userSpaceOnUse" x1="8.03551" y1="20" x2="22.54" y2="20" id="LinearGradient4">
      <stop id="Stop5" stop-color="#fea553" stop-opacity="0.996078431372549" offset="0" />
      <stop id="Stop6" stop-color="#fbfe71" stop-opacity="0.996078431372549" offset="1" />
    </linearGradient>
  </defs>
  <g transform="matrix(1 0 0 1 -70 -315 )">
    <path d="M 22.6048109965636 2.40480961923847  C 22.8682703321879 2.67201068804275  23 2.97929191716766  23 3.32665330661323  C 23 3.67401469605878  22.8682703321879 3.9812959251837  22.6048109965636 4.24849699398798  L 7.07388316151203 20  L 22.6048109965636 35.751503006012  C 22.8682703321879 36.0187040748163  23 36.3259853039412  23 36.6733466933868  C 23 37.0207080828323  22.8682703321879 37.3279893119572  22.6048109965636 37.5951903807615  L 20.6288659793814 39.5991983967936  C 20.3654066437572 39.8663994655979  20.0624284077892 40  19.7199312714777 40  C 19.3774341351661 40  19.0744558991982 39.8663994655979  18.8109965635739 39.5991983967936  L 0.395189003436426 20.9218436873747  C 0.131729667812142 20.6546426185705  0 20.3473613894456  0 20  C 0 19.6526386105544  0.131729667812142 19.3453573814295  0.395189003436426 19.0781563126253  L 18.8109965635739 0.400801603206413  C 19.0744558991982 0.133600534402136  19.3774341351661 0  19.7199312714777 0  C 20.0624284077892 0  20.3654066437572 0.133600534402136  20.6288659793814 0.400801603206413  L 22.6048109965636 2.40480961923847  Z " fill-rule="nonzero" fill="url(#LinearGradient4)" stroke="none" transform="matrix(1 0 0 1 70 315 )" />
  </g>
</svg>