<?xml version="1.0" encoding="utf-8"?>
<svg version="1.1" xmlns:xlink="http://www.w3.org/1999/xlink" width="8px" height="14px" xmlns="http://www.w3.org/2000/svg">
  <g transform="matrix(1 0 0 1 -797 -406 )">
    <path d="M 4.73706004140787 6.67735470941884  C 4.79227053140097 6.77087508350033  4.81987577639752 6.87842351369405  4.81987577639752 7  C 4.81987577639752 7.12157648630594  4.79227053140097 7.22912491649967  4.73706004140787 7.32264529058116  L 0.877846790890269 13.8597194388778  C 0.822636300897171 13.9532398129593  0.759144237405107 14  0.687370600414079 14  C 0.61559696342305 14  0.552104899930987 13.9532398129593  0.496894409937888 13.8597194388778  L 0.082815734989648 13.1583166332665  C 0.0276052449965494 13.064796259185  0 12.9572478289913  0 12.8356713426854  C 0 12.7140948563794  0.0276052449965494 12.6065464261857  0.082815734989648 12.5130260521042  L 3.33747412008282 7  L 0.082815734989648 1.48697394789579  C 0.0276052449965494 1.39345357381429  0 1.28590514362057  0 1.16432865731463  C 0 1.04275217100868  0.0276052449965494 0.935203740814962  0.082815734989648 0.841683366733466  L 0.496894409937888 0.140280561122245  C 0.552104899930987 0.0467601870407477  0.61559696342305 0  0.687370600414079 0  C 0.759144237405107 0  0.822636300897171 0.0467601870407477  0.877846790890269 0.140280561122245  L 4.73706004140787 6.67735470941884  Z M 7.91718426501035 6.67735470941884  C 7.97239475500345 6.77087508350033  8 6.87842351369405  8 7  C 8 7.12157648630594  7.97239475500345 7.22912491649967  7.91718426501035 7.32264529058116  L 4.05797101449275 13.8597194388778  C 4.00276052449966 13.9532398129593  3.93926846100759 14  3.86749482401656 14  C 3.79572118702554 14  3.73222912353347 13.9532398129593  3.67701863354037 13.8597194388778  L 3.26293995859213 13.1583166332665  C 3.20772946859903 13.064796259185  3.18012422360248 12.9572478289913  3.18012422360248 12.8356713426854  C 3.18012422360248 12.7140948563794  3.20772946859903 12.6065464261857  3.26293995859213 12.5130260521042  L 6.5175983436853 7  L 3.26293995859213 1.48697394789579  C 3.20772946859903 1.39345357381429  3.18012422360248 1.28590514362057  3.18012422360248 1.16432865731463  C 3.18012422360248 1.04275217100868  3.20772946859903 0.935203740814962  3.26293995859213 0.841683366733466  L 3.67701863354037 0.140280561122245  C 3.73222912353347 0.0467601870407477  3.79572118702554 0  3.86749482401656 0  C 3.93926846100759 0  4.00276052449966 0.0467601870407477  4.05797101449275 0.140280561122245  L 7.91718426501035 6.67735470941884  Z " fill-rule="nonzero" fill="#000000" stroke="none" transform="matrix(1 0 0 1 797 406 )" />
  </g>
</svg>