<?xml version="1.0" encoding="utf-8"?>
<svg version="1.1" xmlns:xlink="http://www.w3.org/1999/xlink" width="10px" height="15px" xmlns="http://www.w3.org/2000/svg">
  <g transform="matrix(1 0 0 1 -136 -18 )">
    <path d="M 9.82817869415802 0.901803607214418  C 9.94272623138594 1.00200400801603  10 1.11723446893787  10 1.24749498997997  C 10 1.37775551102203  9.94272623138594 1.49298597194387  9.82817869415802 1.59318637274548  L 3.07560137457055 7.5  L 9.82817869415802 13.4068136272545  C 9.94272623138594 13.5070140280561  10 13.622244488978  10 13.75250501002  C 10 13.8827655310621  9.94272623138594 13.997995991984  9.82817869415802 14.0981963927856  L 8.96907216494848 14.8496993987976  C 8.85452462772056 14.9498997995992  8.72279495990843 15  8.57388316151211 15  C 8.42497136311579 15  8.29324169530366 14.9498997995992  8.17869415807574 14.8496993987976  L 0.171821305841983 7.84569138276551  C 0.0572737686140575 7.74549098196394  0 7.6302605210421  0 7.5  C 0 7.3697394789579  0.0572737686140575 7.25450901803606  0.171821305841983 7.15430861723449  L 8.17869415807574 0.150300601202375  C 8.29324169530366 0.0501002004008058  8.42497136311579 0  8.57388316151211 0  C 8.72279495990843 0  8.85452462772056 0.0501002004008058  8.96907216494848 0.150300601202375  L 9.82817869415802 0.901803607214418  Z " fill-rule="nonzero" fill="#1abc9c" stroke="none" transform="matrix(1 0 0 1 136 18 )" />
  </g>
</svg>