<?xml version="1.0" encoding="utf-8"?>
<svg version="1.1" xmlns:xlink="http://www.w3.org/1999/xlink" width="10px" height="15px" xmlns="http://www.w3.org/2000/svg">
  <g transform="matrix(1 0 0 1 -275 -18 )">
    <path d="M 9.82817869415802 7.15430861723449  C 9.94272623138594 7.25450901803606  10 7.3697394789579  10 7.5  C 10 7.6302605210421  9.94272623138594 7.74549098196394  9.82817869415802 7.84569138276551  L 1.82130584192426 14.8496993987976  C 1.70675830469634 14.9498997995992  1.57502863688421 15  1.42611683848789 15  C 1.27720504009157 15  1.14547537227944 14.9498997995992  1.03092783505152 14.8496993987976  L 0.171821305841983 14.0981963927856  C 0.0572737686140575 13.997995991984  0 13.8827655310621  0 13.75250501002  C 0 13.622244488978  0.0572737686140575 13.5070140280561  0.171821305841983 13.4068136272545  L 6.92439862542945 7.5  L 0.171821305841983 1.59318637274548  C 0.0572737686140575 1.49298597194387  0 1.37775551102203  0 1.24749498997997  C 0 1.11723446893787  0.0572737686140575 1.00200400801603  0.171821305841983 0.901803607214418  L 1.03092783505152 0.150300601202375  C 1.14547537227944 0.0501002004008058  1.27720504009157 0  1.42611683848789 0  C 1.57502863688421 0  1.70675830469634 0.0501002004008058  1.82130584192426 0.150300601202375  L 9.82817869415802 7.15430861723449  Z " fill-rule="nonzero" fill="#1abc9c" stroke="none" transform="matrix(1 0 0 1 275 18 )" />
  </g>
</svg>