<?xml version="1.0" encoding="utf-8"?>
<svg version="1.1" xmlns:xlink="http://www.w3.org/1999/xlink" width="30px" height="24px" xmlns="http://www.w3.org/2000/svg">
  <g transform="matrix(1 0 0 1 -1278 -501 )">
    <path d="M 29.0104166666667 10.9453125  C 29.6701388888889 11.2421875  30 11.59375  30 12  C 30 12.40625  29.6701388888889 12.7578125  29.0104166666667 13.0546875  L 5.67708333333333 23.5546875  C 5.01736111111111 23.8515625  4.23611111111111 24  3.33333333333333 24  C 2.43055555555556 24  1.64930555555556 23.8515625  0.989583333333333 23.5546875  C 0.329861111111111 23.2578125  0 22.90625  0 22.5  L 0 1.5  C 0 1.09375  0.329861111111111 0.742187499999996  0.989583333333333 0.4453125  C 1.64930555555556 0.148437499999998  2.43055555555556 0  3.33333333333333 0  C 4.23611111111111 0  5.01736111111111 0.148437499999998  5.67708333333333 0.4453125  L 29.0104166666667 10.9453125  Z " fill-rule="nonzero" fill="#0eafc0" stroke="none" transform="matrix(1 0 0 1 1278 501 )" />
  </g>
</svg>