<?xml version="1.0" encoding="utf-8"?>
<svg version="1.1" xmlns:xlink="http://www.w3.org/1999/xlink" width="30px" height="24px" xmlns="http://www.w3.org/2000/svg">
  <g transform="matrix(1 0 0 1 -1218 -501 )">
    <path d="M 29.0104166666667 0.4453125  C 29.6701388888889 0.742187499999996  30 1.09375  30 1.5  L 30 22.5  C 30 22.90625  29.6701388888889 23.2578125  29.0104166666667 23.5546875  C 28.3506944444444 23.8515625  27.5694444444444 24  26.6666666666667 24  C 25.7638888888889 24  24.9826388888889 23.8515625  24.3229166666667 23.5546875  L 0.989583333333333 13.0546875  C 0.329861111111112 12.7578125  0 12.40625  0 12  C 0 11.59375  0.329861111111112 11.2421875  0.989583333333333 10.9453125  L 24.3229166666667 0.4453125  C 24.9826388888889 0.148437499999998  25.7638888888889 0  26.6666666666667 0  C 27.5694444444444 0  28.3506944444444 0.148437499999998  29.0104166666667 0.4453125  Z " fill-rule="nonzero" fill="#0eafc0" stroke="none" transform="matrix(1 0 0 1 1218 501 )" />
  </g>
</svg>