<?xml version="1.0" encoding="utf-8"?>
<svg version="1.1" xmlns:xlink="http://www.w3.org/1999/xlink" width="250px" height="190px" xmlns="http://www.w3.org/2000/svg">
  <g transform="matrix(1 0 0 1 -335 -145 )">
    <path d="M 339.5 240.192897497982  C 339.5 240.192897497982  339.5 185  339.5 185  C 339.5 165.393891381007  355.393891381007 149.5  375 149.5  C 375 149.5  545 149.5  545 149.5  C 564.606108618993 149.5  580.5 165.393891381007  580.5 185  C 580.5 185  580.5 240.192897497982  580.5 240.192897497982  C 580.5 259.799006116976  564.606108618993 275.692897497982  545 275.692897497982  C 545 275.692897497982  495.272159905476 275.692897497982  495.272159905476 275.692897497982  C 495.272159905476 275.692897497982  459.585963750193 326.822827040504  459.585963750193 326.822827040504  C 459.585963750193 326.822827040504  418.834525426864 275.692897497982  418.834525426864 275.692897497982  C 418.834525426864 275.692897497982  375 275.692897497982  375 275.692897497982  C 355.393891381007 275.692897497982  339.5 259.799006116976  339.5 240.192897497982  Z " fill-rule="nonzero" fill="#e6e6e8" stroke="none" fill-opacity="0" />
    <path d="M 335 240.192897497982  C 335 240.192897497982  335 185  335 185  C 335 162.908610006768  352.908610006768 145  375 145  C 375 145  545 145  545 145  C 567.091389993232 145  585 162.908610006768  585 185  C 585 185  585 240.192897497982  585 240.192897497982  C 585 262.284287491214  567.091389993232 280.192897497982  545 280.192897497982  C 545 280.192897497982  497.619047619049 280.192897497982  497.619047619049 280.192897497982  C 497.619047619049 280.192897497982  459.825066086141 334.342787962643  459.825066086141 334.342787962643  C 459.825066086141 334.342787962643  416.666666666668 280.192897497982  416.666666666668 280.192897497982  C 416.666666666668 280.192897497982  375 280.192897497982  375 280.192897497982  C 352.908610006768 280.192897497982  335 262.284287491214  335 240.192897497982  Z M 340 240.192897497982  C 340 259.52286374206  355.670033755922 275.192897497982  375 275.192897497982  C 375 275.192897497982  419.075398622441 275.192897497982  419.075398622441 275.192897497982  C 419.075398622441 275.192897497982  459.559396823977 325.987275826932  459.559396823977 325.987275826932  C 459.559396823977 325.987275826932  495.011394603968 275.192897497982  495.011394603968 275.192897497982  C 495.011394603968 275.192897497982  545 275.192897497982  545 275.192897497982  C 564.329966244078 275.192897497982  580 259.52286374206  580 240.192897497982  C 580 240.192897497982  580 185  580 185  C 580 165.670033755922  564.329966244078 150  545 150  C 545 150  375 150  375 150  C 355.670033755922 150  340 165.670033755922  340 185  C 340 185  340 240.192897497982  340 240.192897497982  Z " fill-rule="nonzero" fill="#26678e" stroke="none" />
  </g>
</svg>