<?xml version="1.0" encoding="utf-8"?>
<svg version="1.1" xmlns:xlink="http://www.w3.org/1999/xlink" width="12px" height="20px" xmlns="http://www.w3.org/2000/svg">
  <g transform="matrix(1 0 0 1 -381 -23 )">
    <path d="M 0.20618556701031 18.7975951903808  C 0.0687285223367682 18.6639946559786  0 18.5103540414162  0 18.3366733466934  C 0 18.1629926519706  0.0687285223367682 18.0093520374081  0.20618556701031 17.875751503006  L 8.30927835051546 10  L 0.20618556701031 2.12424849699399  C 0.0687285223367682 1.99064796259185  0 1.83700734802939  0 1.66332665330661  C 0 1.48964595858383  0.0687285223367682 1.33600534402138  0.20618556701031 1.20240480961924  L 1.23711340206186 0.200400801603207  C 1.37457044673539 0.0668002672010681  1.53264604810996 0  1.71134020618557 0  C 1.89003436426117 0  2.04810996563574 0.0668002672010681  2.18556701030928 0.200400801603207  L 11.7938144329897 9.53907815631263  C 11.9312714776632 9.67267869071476  12 9.82631930527722  12 10  C 12 10.1736806947228  11.9312714776632 10.3273213092852  11.7938144329897 10.4609218436874  L 2.18556701030928 19.7995991983968  C 2.04810996563574 19.9331997327989  1.89003436426117 20  1.71134020618557 20  C 1.53264604810996 20  1.37457044673539 19.9331997327989  1.23711340206186 19.7995991983968  L 0.20618556701031 18.7975951903808  Z " fill-rule="nonzero" fill="#d7d7d7" stroke="none" transform="matrix(1 0 0 1 381 23 )" />
  </g>
</svg>