<?xml version="1.0" encoding="utf-8"?>
<svg version="1.1" xmlns:xlink="http://www.w3.org/1999/xlink" width="78px" height="83px" xmlns="http://www.w3.org/2000/svg">
  <defs>
    <filter x="421px" y="346px" width="78px" height="83px" filterUnits="userSpaceOnUse" id="filter149">
      <feOffset dx="0" dy="20" in="SourceAlpha" result="shadowOffsetInner" />
      <feGaussianBlur stdDeviation="7.5" in="shadowOffsetInner" result="shadowGaussian" />
      <feComposite in2="shadowGaussian" operator="atop" in="SourceAlpha" result="shadowComposite" />
      <feColorMatrix type="matrix" values="0 0 0 0 0  0 0 0 0 0  0 0 0 0 0  0 0 0 0.247058823529412 0  " in="shadowComposite" />
    </filter>
    <g id="widget150">
      <path d="M 460 355  C 468.4 355  475 361.6  475 370  C 475 378.4  468.4 385  460 385  C 451.6 385  445 378.4  445 370  C 445 361.6  451.6 355  460 355  Z " fill-rule="nonzero" fill="#ffffff" stroke="none" />
      <path d="M 460 351  C 470.64 351  479 359.36  479 370  C 479 380.64  470.64 389  460 389  C 449.36 389  441 380.64  441 370  C 441 359.36  449.36 351  460 351  Z " stroke-width="10" stroke="#26678e" fill="none" />
    </g>
  </defs>
  <g transform="matrix(1 0 0 1 -421 -346 )">
    <use xlink:href="#widget150" filter="url(#filter149)" />
    <use xlink:href="#widget150" />
  </g>
</svg>