<?xml version="1.0" encoding="utf-8"?>
<svg version="1.1" xmlns:xlink="http://www.w3.org/1999/xlink" width="280px" height="225px" xmlns="http://www.w3.org/2000/svg">
  <defs>
    <filter x="20px" y="145px" width="280px" height="225px" filterUnits="userSpaceOnUse" id="filter143">
      <feOffset dx="0" dy="20" in="SourceAlpha" result="shadowOffsetInner" />
      <feGaussianBlur stdDeviation="7.5" in="shadowOffsetInner" result="shadowGaussian" />
      <feComposite in2="shadowGaussian" operator="atop" in="SourceAlpha" result="shadowComposite" />
      <feColorMatrix type="matrix" values="0 0 0 0 0  0 0 0 0 0  0 0 0 0 0  0 0 0 0.247058823529412 0  " in="shadowComposite" />
    </filter>
    <g id="widget144">
      <path d="M 39.5 240.192897497982  C 39.5 240.192897497982  39.5 185  39.5 185  C 39.5 165.393891381007  55.3938913810068 149.5  75 149.5  C 75 149.5  245 149.5  245 149.5  C 264.606108618993 149.5  280.5 165.393891381007  280.5 185  C 280.5 185  280.5 240.192897497982  280.5 240.192897497982  C 280.5 259.799006116976  264.606108618993 275.692897497982  245 275.692897497982  C 245 275.692897497982  191.884035778996 275.692897497982  191.884035778996 275.692897497982  C 191.884035778996 275.692897497982  159.836453219442 325.954775540991  159.836453219442 325.954775540991  C 159.836453219442 325.954775540991  127.980485255748 275.692897497982  127.980485255748 275.692897497982  C 127.980485255748 275.692897497982  75 275.692897497982  75 275.692897497982  C 55.3938913810068 275.692897497982  39.5 259.799006116976  39.5 240.192897497982  Z " fill-rule="nonzero" fill="#ffffff" stroke="none" fill-opacity="0" />
      <path d="M 35 240.192897497982  C 35 240.192897497982  35 185  35 185  C 35 162.908610006768  52.9086100067683 145  75 145  C 75 145  245 145  245 145  C 267.091389993232 145  285 162.908610006768  285 185  C 285 185  285 240.192897497982  285 240.192897497982  C 285 262.284287491214  267.091389993232 280.192897497982  245 280.192897497982  C 245 280.192897497982  194.351692484224 280.192897497982  194.351692484224 280.192897497982  C 194.351692484224 280.192897497982  159.825066086141 334.342787962643  159.825066086141 334.342787962643  C 159.825066086141 334.342787962643  125.504876649454 280.192897497982  125.504876649454 280.192897497982  C 125.504876649454 280.192897497982  75 280.192897497982  75 280.192897497982  C 52.9086100067683 280.192897497982  35 262.284287491214  35 240.192897497982  Z M 40 240.192897497982  C 40 259.52286374206  55.6700337559222 275.192897497982  75 275.192897497982  C 75 275.192897497982  128.25555287867 275.192897497982  128.25555287867 275.192897497982  C 128.25555287867 275.192897497982  159.837718456475 325.022774160808  159.837718456475 325.022774160808  C 159.837718456475 325.022774160808  191.609851700637 275.192897497982  191.609851700637 275.192897497982  C 191.609851700637 275.192897497982  245 275.192897497982  245 275.192897497982  C 264.329966244078 275.192897497982  280 259.52286374206  280 240.192897497982  C 280 240.192897497982  280 185  280 185  C 280 165.670033755922  264.329966244078 150  245 150  C 245 150  75 150  75 150  C 55.6700337559222 150  40 165.670033755922  40 185  C 40 185  40 240.192897497982  40 240.192897497982  Z " fill-rule="nonzero" fill="#e54f4f" stroke="none" />
    </g>
  </defs>
  <g transform="matrix(1 0 0 1 -20 -145 )">
    <use xlink:href="#widget144" filter="url(#filter143)" />
    <use xlink:href="#widget144" />
  </g>
</svg>