<?xml version="1.0" encoding="utf-8"?>
<svg version="1.1" xmlns:xlink="http://www.w3.org/1999/xlink" width="78px" height="83px" xmlns="http://www.w3.org/2000/svg">
  <defs>
    <filter x="1021px" y="346px" width="78px" height="83px" filterUnits="userSpaceOnUse" id="filter168">
      <feOffset dx="0" dy="20" in="SourceAlpha" result="shadowOffsetInner" />
      <feGaussianBlur stdDeviation="7.5" in="shadowOffsetInner" result="shadowGaussian" />
      <feComposite in2="shadowGaussian" operator="atop" in="SourceAlpha" result="shadowComposite" />
      <feColorMatrix type="matrix" values="0 0 0 0 0  0 0 0 0 0  0 0 0 0 0  0 0 0 0.247058823529412 0  " in="shadowComposite" />
    </filter>
    <g id="widget169">
      <path d="M 1060 355  C 1068.4 355  1075 361.6  1075 370  C 1075 378.4  1068.4 385  1060 385  C 1051.6 385  1045 378.4  1045 370  C 1045 361.6  1051.6 355  1060 355  Z " fill-rule="nonzero" fill="#ffffff" stroke="none" />
      <path d="M 1060 351  C 1070.64 351  1079 359.36  1079 370  C 1079 380.64  1070.64 389  1060 389  C 1049.36 389  1041 380.64  1041 370  C 1041 359.36  1049.36 351  1060 351  Z " stroke-width="10" stroke="#b23d91" fill="none" />
    </g>
  </defs>
  <g transform="matrix(1 0 0 1 -1021 -346 )">
    <use xlink:href="#widget169" filter="url(#filter168)" />
    <use xlink:href="#widget169" />
  </g>
</svg>