<?xml version="1.0" encoding="utf-8"?>
<svg version="1.1" xmlns:xlink="http://www.w3.org/1999/xlink" width="250px" height="190px" xmlns="http://www.w3.org/2000/svg">
  <g transform="matrix(1 0 0 1 -635 -145 )">
    <path d="M 639.5 240.192897497982  C 639.5 240.192897497982  639.5 185  639.5 185  C 639.5 165.393891381007  655.393891381007 149.5  675 149.5  C 675 149.5  845 149.5  845 149.5  C 864.606108618993 149.5  880.5 165.393891381007  880.5 185  C 880.5 185  880.5 240.192897497982  880.5 240.192897497982  C 880.5 259.799006116976  864.606108618993 275.692897497982  845 275.692897497982  C 845 275.692897497982  795.272159905476 275.692897497982  795.272159905476 275.692897497982  C 795.272159905476 275.692897497982  759.585963750193 326.822827040504  759.585963750193 326.822827040504  C 759.585963750193 326.822827040504  718.834525426864 275.692897497982  718.834525426864 275.692897497982  C 718.834525426864 275.692897497982  675 275.692897497982  675 275.692897497982  C 655.393891381007 275.692897497982  639.5 259.799006116976  639.5 240.192897497982  Z " fill-rule="nonzero" fill="#e6e6e8" stroke="none" fill-opacity="0" />
    <path d="M 635 240.192897497982  C 635 240.192897497982  635 185  635 185  C 635 162.908610006768  652.908610006768 145  675 145  C 675 145  845 145  845 145  C 867.091389993232 145  885 162.908610006768  885 185  C 885 185  885 240.192897497982  885 240.192897497982  C 885 262.284287491214  867.091389993232 280.192897497982  845 280.192897497982  C 845 280.192897497982  797.619047619049 280.192897497982  797.619047619049 280.192897497982  C 797.619047619049 280.192897497982  759.825066086141 334.342787962643  759.825066086141 334.342787962643  C 759.825066086141 334.342787962643  716.666666666668 280.192897497982  716.666666666668 280.192897497982  C 716.666666666668 280.192897497982  675 280.192897497982  675 280.192897497982  C 652.908610006768 280.192897497982  635 262.284287491214  635 240.192897497982  Z M 640 240.192897497982  C 640 259.52286374206  655.670033755922 275.192897497982  675 275.192897497982  C 675 275.192897497982  719.075398622441 275.192897497982  719.075398622441 275.192897497982  C 719.075398622441 275.192897497982  759.559396823977 325.987275826932  759.559396823977 325.987275826932  C 759.559396823977 325.987275826932  795.011394603968 275.192897497982  795.011394603968 275.192897497982  C 795.011394603968 275.192897497982  845 275.192897497982  845 275.192897497982  C 864.329966244078 275.192897497982  880 259.52286374206  880 240.192897497982  C 880 240.192897497982  880 185  880 185  C 880 165.670033755922  864.329966244078 150  845 150  C 845 150  675 150  675 150  C 655.670033755922 150  640 165.670033755922  640 185  C 640 185  640 240.192897497982  640 240.192897497982  Z " fill-rule="nonzero" fill="#329b29" stroke="none" />
  </g>
</svg>