<?xml version="1.0" encoding="utf-8"?>
<svg version="1.1" xmlns:xlink="http://www.w3.org/1999/xlink" width="280px" height="225px" xmlns="http://www.w3.org/2000/svg">
  <defs>
    <filter x="920px" y="145px" width="280px" height="225px" filterUnits="userSpaceOnUse" id="filter170">
      <feOffset dx="0" dy="20" in="SourceAlpha" result="shadowOffsetInner" />
      <feGaussianBlur stdDeviation="7.5" in="shadowOffsetInner" result="shadowGaussian" />
      <feComposite in2="shadowGaussian" operator="atop" in="SourceAlpha" result="shadowComposite" />
      <feColorMatrix type="matrix" values="0 0 0 0 0  0 0 0 0 0  0 0 0 0 0  0 0 0 0.247058823529412 0  " in="shadowComposite" />
    </filter>
    <g id="widget171">
      <path d="M 939.5 240.192897497982  C 939.5 240.192897497982  939.5 185  939.5 185  C 939.5 165.393891381007  955.393891381007 149.5  975 149.5  C 975 149.5  1145 149.5  1145 149.5  C 1164.60610861899 149.5  1180.5 165.393891381007  1180.5 185  C 1180.5 185  1180.5 240.192897497982  1180.5 240.192897497982  C 1180.5 259.799006116976  1164.60610861899 275.692897497982  1145 275.692897497982  C 1145 275.692897497982  1095.27215990548 275.692897497982  1095.27215990548 275.692897497982  C 1095.27215990548 275.692897497982  1059.58596375019 326.822827040504  1059.58596375019 326.822827040504  C 1059.58596375019 326.822827040504  1018.83452542686 275.692897497982  1018.83452542686 275.692897497982  C 1018.83452542686 275.692897497982  975 275.692897497982  975 275.692897497982  C 955.393891381007 275.692897497982  939.5 259.799006116976  939.5 240.192897497982  Z " fill-rule="nonzero" fill="#e6e6e8" stroke="none" fill-opacity="0" />
      <path d="M 935 240.192897497982  C 935 240.192897497982  935 185  935 185  C 935 162.908610006768  952.908610006768 145  975 145  C 975 145  1145 145  1145 145  C 1167.09138999323 145  1185 162.908610006768  1185 185  C 1185 185  1185 240.192897497982  1185 240.192897497982  C 1185 262.284287491214  1167.09138999323 280.192897497982  1145 280.192897497982  C 1145 280.192897497982  1097.61904761905 280.192897497982  1097.61904761905 280.192897497982  C 1097.61904761905 280.192897497982  1059.82506608614 334.342787962643  1059.82506608614 334.342787962643  C 1059.82506608614 334.342787962643  1016.66666666667 280.192897497982  1016.66666666667 280.192897497982  C 1016.66666666667 280.192897497982  975 280.192897497982  975 280.192897497982  C 952.908610006768 280.192897497982  935 262.284287491214  935 240.192897497982  Z M 940 240.192897497982  C 940 259.52286374206  955.670033755922 275.192897497982  975 275.192897497982  C 975 275.192897497982  1019.07539862244 275.192897497982  1019.07539862244 275.192897497982  C 1019.07539862244 275.192897497982  1059.55939682398 325.987275826932  1059.55939682398 325.987275826932  C 1059.55939682398 325.987275826932  1095.01139460397 275.192897497982  1095.01139460397 275.192897497982  C 1095.01139460397 275.192897497982  1145 275.192897497982  1145 275.192897497982  C 1164.32996624408 275.192897497982  1180 259.52286374206  1180 240.192897497982  C 1180 240.192897497982  1180 185  1180 185  C 1180 165.670033755922  1164.32996624408 150  1145 150  C 1145 150  975 150  975 150  C 955.670033755922 150  940 165.670033755922  940 185  C 940 185  940 240.192897497982  940 240.192897497982  Z " fill-rule="nonzero" fill="#b23d91" stroke="none" />
    </g>
  </defs>
  <g transform="matrix(1 0 0 1 -920 -145 )">
    <use xlink:href="#widget171" filter="url(#filter170)" />
    <use xlink:href="#widget171" />
  </g>
</svg>