<?xml version="1.0" encoding="utf-8"?>
<svg version="1.1" xmlns:xlink="http://www.w3.org/1999/xlink" width="48px" height="48px" xmlns="http://www.w3.org/2000/svg">
  <g transform="matrix(1 0 0 1 -1036 -346 )">
    <path d="M 1060 355  C 1068.4 355  1075 361.6  1075 370  C 1075 378.4  1068.4 385  1060 385  C 1051.6 385  1045 378.4  1045 370  C 1045 361.6  1051.6 355  1060 355  Z " fill-rule="nonzero" fill="#ffffff" stroke="none" />
    <path d="M 1060 351  C 1070.64 351  1079 359.36  1079 370  C 1079 380.64  1070.64 389  1060 389  C 1049.36 389  1041 380.64  1041 370  C 1041 359.36  1049.36 351  1060 351  Z " stroke-width="10" stroke="#b23d91" fill="none" />
  </g>
</svg>