<?xml version="1.0" encoding="utf-8"?>
<svg version="1.1" xmlns:xlink="http://www.w3.org/1999/xlink" width="280px" height="225px" xmlns="http://www.w3.org/2000/svg">
  <defs>
    <filter x="1220px" y="145px" width="280px" height="225px" filterUnits="userSpaceOnUse" id="filter178">
      <feOffset dx="0" dy="20" in="SourceAlpha" result="shadowOffsetInner" />
      <feGaussianBlur stdDeviation="7.5" in="shadowOffsetInner" result="shadowGaussian" />
      <feComposite in2="shadowGaussian" operator="atop" in="SourceAlpha" result="shadowComposite" />
      <feColorMatrix type="matrix" values="0 0 0 0 0  0 0 0 0 0  0 0 0 0 0  0 0 0 0.247058823529412 0  " in="shadowComposite" />
    </filter>
    <g id="widget179">
      <path d="M 1239.5 240.192897497982  C 1239.5 240.192897497982  1239.5 185  1239.5 185  C 1239.5 165.393891381007  1255.39389138101 149.5  1275 149.5  C 1275 149.5  1445 149.5  1445 149.5  C 1464.60610861899 149.5  1480.5 165.393891381007  1480.5 185  C 1480.5 185  1480.5 240.192897497982  1480.5 240.192897497982  C 1480.5 259.799006116976  1464.60610861899 275.692897497982  1445 275.692897497982  C 1445 275.692897497982  1395.27215990548 275.692897497982  1395.27215990548 275.692897497982  C 1395.27215990548 275.692897497982  1359.58596375019 326.822827040504  1359.58596375019 326.822827040504  C 1359.58596375019 326.822827040504  1318.83452542686 275.692897497982  1318.83452542686 275.692897497982  C 1318.83452542686 275.692897497982  1275 275.692897497982  1275 275.692897497982  C 1255.39389138101 275.692897497982  1239.5 259.799006116976  1239.5 240.192897497982  Z " fill-rule="nonzero" fill="#e36297" stroke="none" fill-opacity="0" />
      <path d="M 1235 240.192897497982  C 1235 240.192897497982  1235 185  1235 185  C 1235 162.908610006768  1252.90861000677 145  1275 145  C 1275 145  1445 145  1445 145  C 1467.09138999323 145  1485 162.908610006768  1485 185  C 1485 185  1485 240.192897497982  1485 240.192897497982  C 1485 262.284287491214  1467.09138999323 280.192897497982  1445 280.192897497982  C 1445 280.192897497982  1397.61904761905 280.192897497982  1397.61904761905 280.192897497982  C 1397.61904761905 280.192897497982  1359.82506608614 334.342787962643  1359.82506608614 334.342787962643  C 1359.82506608614 334.342787962643  1316.66666666667 280.192897497982  1316.66666666667 280.192897497982  C 1316.66666666667 280.192897497982  1275 280.192897497982  1275 280.192897497982  C 1252.90861000677 280.192897497982  1235 262.284287491214  1235 240.192897497982  Z M 1240 240.192897497982  C 1240 259.52286374206  1255.67003375592 275.192897497982  1275 275.192897497982  C 1275 275.192897497982  1319.07539862244 275.192897497982  1319.07539862244 275.192897497982  C 1319.07539862244 275.192897497982  1359.55939682398 325.987275826932  1359.55939682398 325.987275826932  C 1359.55939682398 325.987275826932  1395.01139460397 275.192897497982  1395.01139460397 275.192897497982  C 1395.01139460397 275.192897497982  1445 275.192897497982  1445 275.192897497982  C 1464.32996624408 275.192897497982  1480 259.52286374206  1480 240.192897497982  C 1480 240.192897497982  1480 185  1480 185  C 1480 165.670033755922  1464.32996624408 150  1445 150  C 1445 150  1275 150  1275 150  C 1255.67003375592 150  1240 165.670033755922  1240 185  C 1240 185  1240 240.192897497982  1240 240.192897497982  Z " fill-rule="nonzero" fill="#e36297" stroke="none" />
    </g>
  </defs>
  <g transform="matrix(1 0 0 1 -1220 -145 )">
    <use xlink:href="#widget179" filter="url(#filter178)" />
    <use xlink:href="#widget179" />
  </g>
</svg>