<?xml version="1.0" encoding="utf-8"?>
<svg version="1.1" xmlns:xlink="http://www.w3.org/1999/xlink" width="12px" height="21px" xmlns="http://www.w3.org/2000/svg">
  <g transform="matrix(1 0 0 1 -480 -843 )">
    <path d="M 0.20618556701031 19.7374749498998  C 0.0687285223367682 19.5971943887776  0 19.435871743487  0 19.2535070140281  C 0 19.0711422845691  0.0687285223367682 18.9098196392786  0.20618556701031 18.7695390781563  L 8.30927835051546 10.5  L 0.20618556701031 2.23046092184369  C 0.0687285223367682 2.09018036072144  0 1.92885771543086  0 1.74649298597194  C 0 1.56412825651303  0.0687285223367682 1.40280561122245  0.20618556701031 1.2625250501002  L 1.23711340206186 0.210420841683367  C 1.37457044673539 0.0701402805611215  1.53264604810996 0  1.71134020618557 0  C 1.89003436426117 0  2.04810996563574 0.0701402805611215  2.18556701030928 0.210420841683367  L 11.7938144329897 10.0160320641283  C 11.9312714776632 10.1563126252505  12 10.3176352705411  12 10.5  C 12 10.6823647294589  11.9312714776632 10.8436873747495  11.7938144329897 10.9839679358717  L 2.18556701030928 20.7895791583166  C 2.04810996563574 20.9298597194389  1.89003436426117 21  1.71134020618557 21  C 1.53264604810996 21  1.37457044673539 20.9298597194389  1.23711340206186 20.7895791583166  L 0.20618556701031 19.7374749498998  Z " fill-rule="nonzero" fill="#d7d7d7" stroke="none" transform="matrix(1 0 0 1 480 843 )" />
  </g>
</svg>